Coordinates
version=1
nRows=13
nColumns=36
inDegrees=yes

Units are S.I. units (second, meters, Newtons, ...)
If the header above contains a line with 'inDegrees', this indicates whether rotational values are in degrees (yes) or radians (no).

endheader
time	pelvis_tilt	pelvis_list	pelvis_rotation	pelvis_tx	pelvis_ty	pelvis_tz	hip_flexion_r	hip_adduction_r	hip_rotation_r	knee_angle_r	knee_angle_r_beta	ankle_angle_r	subtalar_angle_r	mtp_angle_r	hip_flexion_l	hip_adduction_l	hip_rotation_l	knee_angle_l	knee_angle_l_beta	ankle_angle_l	subtalar_angle_l	mtp_angle_l	lumbar_extension	lumbar_bending	lumbar_rotation	arm_flex_r	arm_add_r	arm_rot_r	elbow_flex_r	pro_sup_r	arm_flex_l	arm_add_l	arm_rot_l	elbow_flex_l	pro_sup_l
      0.62000000	     -5.50319914	      4.36051693	     84.44313679	     -0.24407340	      0.94837673	      0.34362709	     -3.40781390	    -10.25229917	      0.93784369	     53.33120772	      0.93080517	    -27.82211831	    -14.17256117	     -7.50004493	     13.76955983	      5.92206836	    -12.89549053	     22.48306802	      0.39240356	      2.74622268	     -6.71489000	     -7.50004493	    -15.57265974	     -6.43468575	      3.91397302	      6.07874908	     -5.41727393	    -26.99538543	     52.61481195	    106.84707513	     -0.14713326	     -4.77713722	    -44.32026613	     25.75549370	     83.14360295
      0.63000000	     -5.59187709	      4.15509504	     83.88626358	     -0.24465025	      0.95008647	      0.33193944	     -1.32206900	    -10.56916194	      1.29770346	     55.69174653	      0.97200434	    -26.45674826	    -15.76595030	     -7.50004316	     12.93000103	      6.09800315	    -13.39411324	     21.91041861	      0.38240895	      3.23611125	     -6.42715897	     -7.50004316	    -15.32935985	     -6.60382362	      4.01090664	      6.07707822	     -5.29534289	    -26.98709874	     52.13836614	    106.55754273	      0.05723862	     -4.68550304	    -44.14002607	     26.14576671	     83.18770646
      0.64000000	     -5.46339672	      3.71516455	     83.63063365	     -0.24518602	      0.95138669	      0.32111202	      1.05065331	    -10.46124389	      1.37082053	     57.89875810	      1.01052396	    -24.53802150	    -17.89174850	     -7.50004202	     12.48031046	      6.01991852	    -13.55333474	     21.61102844	      0.37718360	      3.80582766	     -6.10255254	     -7.50004202	    -15.02015096	     -6.48974985	      3.87887632	      6.10126438	     -5.16661607	    -26.68012929	     51.74460239	    104.46891265	      0.39625921	     -4.69980943	    -43.64151029	     26.54994551	     82.44277000
      0.65000000	     -5.31662626	      3.66087253	     83.36491154	     -0.24605590	      0.95339827	      0.31002687	      2.92769415	    -10.39208809	      1.34695599	     59.60744240	      1.04034613	    -22.27334426	    -19.59756706	     -7.50004111	     11.41589666	      6.05828537	    -13.68344576	     20.90829392	      0.36491857	      4.32317664	     -5.71134609	     -7.50004111	    -15.16982202	     -6.29472946	      3.70338356	      6.20196635	     -5.10043879	    -26.64534789	     51.51427849	    104.24592716	      0.85615295	     -4.60681008	    -43.40408945	     26.85398509	     82.37222346
      0.66000000	     -5.41923140	      3.18166990	     82.84759528	     -0.24630323	      0.95451957	      0.29897865	      5.46514810	    -10.41414258	      1.68536235	     61.25225681	      1.06905356	    -20.36596958	    -22.18151843	     -7.50003193	     10.86304964	      6.15681826	    -14.59108056	     20.24936855	      0.35341815	      4.74899845	     -4.69273943	     -7.50003193	    -14.68565590	     -6.48260410	      3.82586301	      6.25950801	     -4.75983782	    -27.25294797	     51.07741646	    107.29767098	      0.96284413	     -4.79658330	    -42.27419231	     27.53203815	     84.20826711
      0.67000000	     -5.38035866	      2.93180770	     82.79439360	     -0.24743287	      0.95609177	      0.28775368	      7.43681977	    -10.26163924	      1.64546181	     62.30921245	      1.08750091	    -18.36384545	    -24.82584568	     -7.50003103	      9.98234555	      6.33907333	    -14.69621147	     19.44382111	      0.33935870	      5.00094970	     -4.26501876	     -7.50003103	    -14.56336790	     -6.36247951	      3.52272419	      6.11949713	     -4.75564408	    -27.04548201	     50.96967011	    106.17425003	      1.42627028	     -4.80464786	    -41.80754226	     27.87246121	     83.63700716
      0.68000000	     -5.37028023	      2.78895642	     82.70835507	     -0.24841299	      0.95766839	      0.27658214	      9.28248046	    -10.22289163	      1.41390406	     63.06044019	      1.10061231	    -16.20678059	    -27.11861505	     -7.50002963	      8.90320712	      6.58256611	    -14.83700405	     18.42402110	      0.32155983	      5.19602930	     -3.63540469	     -7.50002963	    -14.55910792	     -6.31080467	      3.25900083	      5.96992051	     -4.66179584	    -27.02974501	     50.94566242	    105.79816193	      1.81850221	     -4.85134884	    -41.02783213	     28.43988776	     83.34303444
      0.69000000	     -5.17342959	      2.84761659	     82.86990801	     -0.24960179	      0.95952135	      0.26512608	     10.64612229	    -10.00285617	      0.90498408	     63.36336585	      1.10589936	    -13.93803236	    -28.86073583	     -7.50002826	      7.56512760	      6.66425739	    -14.86785997	     17.44867648	      0.30453685	      5.54695026	     -2.65389028	     -7.50002826	    -14.77108080	     -6.01386046	      2.80548637	      5.83082763	     -4.63594973	    -27.08940047	     50.91522952	    106.26886585	      2.20153876	     -4.96413984	    -40.05199942	     28.95942104	     83.53683739
      0.70000000	     -5.04840679	      2.79778582	     83.05797363	     -0.25077783	      0.96102576	      0.25392839	     12.12610048	     -9.84774406	      0.37405675	     63.41538922	      1.10680734	    -11.42037659	    -30.24400252	     -7.50002660	      6.38044785	      6.83090301	    -14.66481553	     16.47003159	      0.28745628	      5.60015566	     -2.25388308	     -7.50002660	    -14.90436768	     -5.79236021	      2.38351664	      5.62953644	     -4.59777695	    -27.08804012	     50.98017618	    106.06550148	      2.76592655	     -5.10962318	    -39.15855443	     29.35097397	     83.25192822
      0.71000000	     -4.67905933	      2.99026193	     83.39912453	     -0.25201067	      0.96292432	      0.24243779	     13.11425832	     -9.51185959	     -0.47373173	     63.02428307	      1.09998125	     -9.03712915	    -31.00134887	     -7.50002385	      4.83048347	      6.75382513	    -14.45535264	     15.40906934	      0.26893899	      5.86165522	     -1.37093358	     -7.50002385	    -15.31792051	     -5.30895744	      1.89121201	      5.32678865	     -4.68048795	    -26.91094133	     51.18480161	    104.86554775	      3.22640524	     -5.28948797	    -37.75928432	     29.90593631	     82.26322016
      0.72000000	     -4.39936837	      2.94780275	     83.62745302	     -0.25289901	      0.96415307	      0.23134435	     14.42860405	     -9.15185462	     -1.09246172	     62.48667889	      1.09059829	     -6.87949936	    -31.33040575	     -7.50001815	      3.66941428	      6.66538700	    -14.44849773	     14.54427097	      0.25384542	      6.09423648	     -0.50981101	     -7.50001815	    -15.45907626	     -4.95649888	      1.56155166	      5.07180903	     -4.67895190	    -27.06542197	     51.27544794	    106.34668021	      3.68130710	     -5.58598673	    -36.22032906	     30.47687491	     82.74017597
      0.73000000	     -4.10212172	      2.57317018	     83.98406122	     -0.25387304	      0.96476165	      0.22055578	     16.02070679	     -8.73184216	     -1.80686850	     61.66292367	      1.07622104	     -5.45526222	    -31.72421662	     -7.50001771	      3.02275136	      6.49401039	    -14.12264626	     13.96334991	      0.24370643	      6.36094547	     -0.18447921	     -7.50001771	    -15.26065196	     -4.53450606	      1.10398254	      4.81366465	     -4.70308470	    -27.05426932	     51.31417614	    106.04979070	      4.41218029	     -5.62581839	    -35.97878007	     30.87526022	     82.49090376
      0.74000000	     -3.77051539	      2.38212176	     84.32274975	     -0.25485243	      0.96552052	      0.20947487	     17.27193248	     -8.36963238	     -2.67176687	     60.41528956	      1.05444572	     -4.10599506	    -31.47056842	     -7.50001729	      2.08927926	      6.30533503	    -13.93048850	     13.23186610	      0.23093963	      6.56740442	      0.47906993	     -7.50001729	    -15.20967930	     -4.08698201	      0.71464195	      4.52967696	     -4.73453762	    -27.11177309	     51.33217377	    105.79259424	      5.16116554	     -5.66140560	    -35.58331420	     31.13141387	     82.32475830
